<svg width="280" height="60" version="1.1" viewBox="0 0 280 60" xmlns="http://www.w3.org/2000/svg"><g style="dominant-baseline:central;fill:#fff" aria-label="ドキュメンタリー"><path d="m26 40c0 1.2 0.65 3.3 1.5 3.3 1.2-0.14 1.7-0.86 1.7-2.6-0.22-4-0.32-8.8-0.32-13 0-3.1 0.072-5.4 0.18-5.7 0.14-0.54 0.36-1.3 0.72-1.7 0.072-0.072 0.14-0.22 0.14-0.4 0-0.4-0.25-0.94-0.9-1.4-1.6-1-2-1.4-3.2-1.5-0.32 0-0.58 0.14-0.58 0.4 0 0.11 0.036 0.22 0.14 0.36 1.3 2.3 0.86 4.5 1 8 0 4.4-0.18 9.9-0.47 14zm11-7.2c0-0.65-0.29-1.3-0.79-1.9-1.2-1.3-2.8-2.3-5.3-2.7-0.32 0-0.5 0.18-0.5 0.36s0.14 0.4 0.47 0.61c1.3 0.72 2.2 1.8 2.8 3.6 0.36 1.1 0.9 1.4 2 1.4 0.94 0.11 1.3-0.5 1.4-1.4zm-2.6-13c-0.29 0-0.47 0.072-0.47 0.22s0.18 0.4 0.54 0.68c0.61 0.47 1.3 1.1 2.2 2.6 0.25 0.47 0.58 0.65 0.86 0.65 0.5 0 0.9-0.54 0.9-1.2-0.11-1.4-2-2.7-4-3zm1.9-2.3c-0.36 0-0.5 0.11-0.5 0.29s0.22 0.47 0.54 0.65c1 0.58 1.6 1.2 2.6 2.4 0.25 0.36 0.5 0.5 0.76 0.5 0.43 0 0.79-0.5 0.79-1 0-0.25-0.072-0.54-0.22-0.76-0.79-1.1-2.3-1.9-4-2.1z"/><path d="m53 26c-0.36 0-0.58 0.18-0.58 0.4 0 0.14 0.11 0.32 0.32 0.47 1 0.76 2 1.4 3.5 1.4 0.47 0 0.86-0.14 1.3-0.36 0.5-0.32 1.5-0.65 2.7-0.97 0.36 1.3 0.68 2.7 0.97 4-2.2 0.47-4.2 0.86-4.8 1-1.2 0.25-2.3 0.29-3.4 0.29h-0.68c-0.4 0-0.65 0.14-0.65 0.4 0 0.14 0.072 0.29 0.29 0.47 1 0.65 1.6 1.4 2.8 1.5 0.76 0 1.6-0.4 2.1-0.65 0.68-0.4 2.4-0.86 4.6-1.3 0.47 2.3 0.86 4.8 1.2 7.6 0.18 1.4 0.58 3.3 2.2 3.3 1-0.036 1.5-0.5 1.4-1.2 0-0.68-0.29-1.5-0.54-2.3-0.68-2.5-1.5-5.1-2.2-7.8 2.1-0.36 4.2-0.72 6-1 1.2-0.18 2.2-0.94 2.2-1.5 0.11-0.43-1-1.1-2.8-1.3-0.97 0-1.7 0.94-2.3 1.2-0.61 0.25-2 0.58-3.6 0.94-0.32-1.4-0.65-2.7-0.9-4 1.6-0.36 3.1-0.61 3.9-0.72 1.2-0.14 2.3-0.5 2.3-1.2 0-0.54-1.6-1.5-2.9-1.6-0.94 0-1.7 0.86-2.3 1.1-0.18 0.11-0.72 0.25-1.4 0.47-0.11-0.65-0.22-1.3-0.29-1.9 0-1.1 0.5-1.5 0.5-2.2-0.036-1.1-2.2-2.4-4.5-2.6-0.36 0-0.76 0.25-0.76 0.61 0 0.14 0.072 0.25 0.18 0.4 1.3 1.5 1.6 2.6 1.8 3.3 0.29 1 0.58 2 0.83 2.9-1.3 0.36-2.5 0.65-3 0.79-0.61 0.14-1.2 0.18-1.7 0.18-0.72 0-1.4-0.072-2-0.11z"/><path d="m90 32c-0.29 0-0.68 0.14-0.68 0.43 0 0.11 0.072 0.25 0.25 0.43 0.47 0.4 1.1 1 1.9 1.1 0.97-0.14 2.5-1 3.6-1.3 0.43-0.14 0.43-0.11 0.4 0.29l-0.4 4.4c-2.3 0.18-4.6 0.32-6.4 0.4-0.58 0.036-0.86-0.11-1.3-0.11-0.32 0-0.54 0.11-0.54 0.32 0.29 0.9 1 1.8 2.3 2 0.29 0 0.58-0.11 0.9-0.25 2.5-0.79 5.5-0.83 8.2-0.83 1.3 0 2.9 0.14 3.7 0.18 0.58 0 0.76-0.29 0.76-0.68-0.14-0.79-0.47-1.7-1.5-1.6-1.4 0.14-3 0.29-4.5 0.43 0.25-1 0.68-2.8 0.9-3.5 0.22-0.43 1.3-0.72 1.3-1.5 0-0.18-0.11-0.4-0.32-0.58-0.65-0.4-1.3-1.4-1.9-1.4-0.5 0-0.83 0.54-1.3 0.68-2.2 0.58-2.9 0.83-4.8 1-0.14 0-0.22-0.036-0.32-0.036z"/><path d="m130 21c-0.14 0-0.22 0.036-0.22 0.18 0.18 0.58 0.43 1.2 0.4 1.8 0 0.68-0.18 1.4-0.54 2-0.9 1.6-1.8 3-2.6 4.3-1.1-0.58-2.3-0.97-3.3-1-0.36 0-0.58 0.072-0.58 0.22s0.18 0.32 0.54 0.54c0.83 0.5 1.6 1.1 2.3 1.8-2.5 3.6-5.1 6-9.3 8.6-0.79 0.5-1.2 0.94-1.2 1.2 0 0.14 0.14 0.22 0.36 0.22 0.36 0 0.94-0.18 1.8-0.58 3.7-1.8 6.9-4.1 9.8-7.7 0.18 0.22 0.36 0.47 0.54 0.72 0.65 0.94 1.6 1.7 2.4 1.7 0.68 0 1.2-0.76 1.1-1.4 0-0.68-0.36-1.4-0.94-2-0.43-0.36-0.94-0.76-1.5-1.2 0.97-1.4 1.9-3.1 2.9-4.9 0.5-0.94 1.5-1.3 1.5-1.9 0.22-0.61-2.1-2.4-3.5-2.7z"/><path d="m158 28c0-0.79-0.4-1.7-1.2-2.3-0.94-0.79-3.4-1.7-6.6-1.7-0.58 0-0.86 0.14-0.86 0.36s0.29 0.5 0.79 0.79c1.5 0.83 3.2 1.8 4.5 3.3 0.43 0.54 1.2 1.4 2 1.4 0.76 0 1.5-0.97 1.4-1.8zm-7.7 9c-0.29 0-0.43 0.14-0.43 0.4 0 0.22 0.11 0.54 0.32 0.94 0.54 0.72 2.4 3.1 3.7 3.1 0.11 0 0.22-0.036 0.32-0.072 1.9-0.68 10-7.5 14-14 0.36-0.61 0.54-1.1 0.54-1.4 0-0.22-0.072-0.36-0.25-0.36-0.29 0-0.79 0.36-1.4 1.1-3.2 4.1-8.7 8.4-12 10-1.3 0.76-2.1 1.1-2.7 1.1-0.61 0.11-1.9-0.72-2.7-0.79z"/><path d="m188 20c0 0.76-0.25 1.5-0.5 2.2-1.6 4.4-3.9 6.6-6.7 9-0.43 0.4-0.68 0.79-0.68 1 0 0.14 0.11 0.25 0.29 0.25 0.22 0 0.5-0.11 0.94-0.36 3.3-1.9 6.1-4.9 7.7-8 1.1-0.072 3.1-0.22 4.5-0.25 0.58 0 0.86 0.072 0.86 0.4 0 0.11 0 0.25-0.072 0.4-0.86 2.4-2 4.5-3.3 6.4-0.83-0.36-1.7-0.65-2.7-0.94-0.32-0.072-0.58-0.11-0.76-0.11-0.25 0-0.4 0.072-0.4 0.18 0 0.14 0.25 0.4 0.72 0.65 0.79 0.43 1.5 0.97 2.1 1.6-3 3.7-6.5 6.3-9.6 8-0.86 0.47-1.3 0.86-1.3 1.1 0 0.14 0.14 0.25 0.43 0.25s0.68-0.11 1.2-0.29c3.6-1.4 7.3-4.1 11-7.4 0.36 0.54 0.68 1.2 0.97 1.8 0.58 1.5 1.5 1.9 2.6 1.9 0.97 0.072 1.4-0.79 1.4-1.8 0-0.86-0.36-1.8-1.1-2.4-0.68-0.54-1.4-1-2.1-1.5 1.3-1.6 2.5-3.2 3.5-5 0.4-0.65 1.4-1.8 1.8-2.2 0.54-0.47 0.86-0.94 0.86-1.4 0-0.22-0.072-0.43-0.25-0.65-0.76-0.83-2-2.2-3.1-2.4-0.18 0-0.32 0.036-0.47 0.11-0.79 0.5-1.6 1-2.2 1.2-1 0.22-2.3 0.36-3.2 0.47 0.18-0.29 0.36-0.5 0.61-0.72 0.14-0.11 0.22-0.29 0.22-0.43 0-0.32-0.25-0.68-0.61-1.1-0.86-0.83-1.3-1.8-2.4-2.1-0.18 0-0.32 0.11-0.32 0.25 0.22 0.47 0.58 0.97 0.5 1.5z"/><path d="m220 26c0-0.61 0.036-1.2 0.036-1.7 0-0.32 0-0.65-0.072-1-0.22-1.1-1.9-2.1-3.6-2.4-0.32 0-0.54 0.11-0.54 0.29 0 0.11 0.11 0.25 0.36 0.4 0.36 0.29 1.1 1.2 1.1 2.4 0.036 0.54 0.036 2.6 0.036 4.5 0 1.7 0 2.7-0.036 3.6 0 1.3 0.5 2.5 1.8 2.6 0.72 0 1-0.86 1-1.7-0.11-1.2-0.11-5.6-0.11-7.1zm4.6-2.1c0 1.4-0.11 4-0.18 5.7-0.22 7.8-3.2 11-6.3 13-0.54 0.43-0.76 0.79-0.76 1 0 0.14 0.072 0.22 0.29 0.22 0.25 0 0.65-0.11 1.2-0.4 4.8-2.7 7.8-6.9 8.4-13 0.29-3.5 0.36-6.1 0.36-7s0.25-1.3 0.25-1.8c0-0.32-0.11-0.68-0.54-1.1-0.72-0.72-2.4-1.8-4-1.9-0.32 0-0.5 0.11-0.5 0.29 0 0.14 0.11 0.29 0.29 0.43 0.94 0.97 1.6 2.3 1.5 3.8z"/><path d="m264 29c-3.4 0.18-14 0.79-17 0.86-0.97 0-2.4-0.036-3.1-0.61-0.32-0.22-0.61-0.32-0.79-0.32-0.25 0-0.36 0.22-0.36 0.47 0.29 1.4 0.97 1.9 2.4 2.9 0.36 0.18 0.68 0.25 1 0.25 0.5 0 0.97-0.11 1.4-0.18 3.9-0.68 8.2-0.65 11-0.79 1.7 0 4.4 0.14 5.2 0.14 1.2 0 1.7-0.4 1.7-0.94-0.072-0.61-0.68-2-1.9-1.8z"/></g></svg>
