<svg width="280" height="60" version="1.1" viewBox="0 0 280 60" xmlns="http://www.w3.org/2000/svg"><g style="dominant-baseline:central;fill:#fff" aria-label="格闘"><path d="m30 26q-1.9-2.2-3.8-5.1-1.4 2.5-3.2 4.2l-2.3-3.5h-1.8q2.4 8.4 2.5 9.2 5-2 8.5-4.8zm3.3-2.5q2.9-2.9 4.7-6.3h-9.6q0.18 0 0.18 0.044 2.2 3.6 4.7 6.3zm5.7 9.6q-3.1-2-5.8-4.4-2.9 2.4-6.5 4.4zm-28-18q1.8 2.6 2.9 2.6h1.2v-3q0-2.2-3.5-4.4h11q-3.5 2.2-3.5 4.4v3h0.35q1.1 0 2.9-2.6v5.4q3.2-4.7 5.5-11l4.2 0.83q-0.66 1.5-1.2 3.1h16q-3.5 1.5-3.5 2.9v1q-2.7 5.1-6.4 8.9 3.6 2.9 8.3 4.9l-0.75 4.2q-0.62-0.13-1.2-0.35-0.62-0.26-0.62-0.4v11q0 2.2 3.5 4.4h-5q-1.1 0-2.9 2.6v-4.9h-11v4.9q-1.8-2.6-2.9-2.6h-4.9q3.5-2.2 3.5-4.4v-12q0.13 0.088-0.22 0.26-0.35 0.18-0.35 0.22 0 0.13 0.088 0.57 0.13 0.44 0.26 0.7l-3.1 2.2q-1.1-4.4-1.1-5.9v14q0 2.2 3.5 4.4h-11q3.5-2.2 3.5-4.4v-12q-0.83 4.4-2.5 7.5l-2.5-4.4q3.5-7.3 4.8-15h-1.1q-1.1 0-2.9 2.6zm27 29v-7.2h-11v7.2z"/><path d="m156 39h-6.8q3.5-1.5 3.5-2.9v-1.8q0-1.3-3.5-2.9h17q-3.5 1.5-3.5 2.9v1.8q0 1.3 3.5 2.9zm0.22-2.5h3.4v-2.4h-3.4zm5.4 6.7q0.26-0.13 2-0.53l0.088 3.3q-6.1 1.4-11 1.9l-0.26-3.3q1.8-0.18 5.2-0.7 1.3-2.2 2.2-4.5l3.3 0.97q-0.62 1.4-1.1 2.9zm-11-33h14q-3.5 2.2-3.5 4.4v6.7q0 2.2 3.5 4.4h-14v19q0 2.2 3.5 4.4h-11q3.5-2.2 3.5-4.4v-30q0-2.2-3.5-4.4zm0.22 6.4h6.5v-2.7h-6.5zm0 3.1v2.7h6.5v-2.7zm23-3.1v-2.7h-6.9v2.7zm0 3.1h-6.9v2.7h6.9zm-5.1 20-2.9 1.8q-1.7-3.8-3.7-6.8l2.9-1.8q2 3 3.7 6.8zm-17-7v-8.4q1.8 2.6 2.9 2.6h5.4q1.1 0 2.9-2.6v4.7h5.4v-2.3h3.8v2.3h1.6v3.4h-1.6v11q0 1.2-0.088 2-0.13 0 0.044 0.044 0.18 0 0.22 0 1.3 0 1.5-0.31 0.22-0.35 0.22-2.1v-17h-15q3.5-2.2 3.5-4.4v-6.7q0-2.2-3.5-4.4h22q-3.5 2.2-3.5 4.4v28q0 4.5-0.88 5.5-0.88 1.1-4.4 1.1-0.75 0-3.8-0.26l-0.18-2.1h0.044q-1.5 0-4.6-0.26l-0.18-3.6q2.8 0.22 3.7 0.22 0.62 0 0.7-0.13 0.088-0.18 0.088-1.1v-9.6h-3.3q-1.1 0-2.9 2.6v-4.9h-7.7q-1.1 0-2.9 2.6zm0.53 7.5 3.6-0.97q0.88 1.7 1.5 3.6l-3.5 0.97q-0.75-1.9-1.6-3.6z"/></g></svg>
