<svg width="280" height="60" version="1.1" viewBox="0 0 280 60" xmlns="http://www.w3.org/2000/svg"><g style="dominant-baseline:central;fill:#fff" aria-label="麻雀"><path d="m29 20v9.2q-1.8-2.6-2.9-2.6h-0.22q2.2 4.4 4 8.4l-2.5 3.3q-1.6-3.5-2.2-5.7v13q0 2.2 3.5 4.4h-11q3.5-2.2 3.5-4.4v-11q-1.1 6-3.8 10l-1.5-3.9q-0.79 5.1-2.6 9l-3.1-4q1.5-3.9 2.1-8.5 0.66-4.7 0.66-12v-8.9q0-2.2-3.5-4.4h17v-0.97q0-1.3-3.5-2.9h11q-3.5 1.5-3.5 2.9v0.97h10q1.1 0 2.9-2.6v9.2q-1.8-2.6-2.9-2.6h-24v13q0 5.4-0.57 10 2.8-6.3 4.1-12h-0.31q-1.1 0-2.9 2.6v-9.2q1.8 2.6 2.9 2.6h0.88v-1q0-2.2-3.5-4.4h11q-3.5 2.2-3.5 4.4v1h0.83q1.1 0 2.9-2.6zm15 0v9.2q-1.8-2.6-2.9-2.6h-1.8q2 7.4 6.1 14l-2.5 4.1q-2.8-4.9-4.1-11v11q0 2.2 3.5 4.4h-11q3.5-2.2 3.5-4.4v-11q-1.8 6.5-5.2 12l-2.5-3.4q5.2-8.3 7.3-16h-1.2q-1.1 0-2.9 2.6v-9.2q1.8 2.6 2.9 2.6h1.6v-1q0-2.2-3.5-4.4h11q-3.5 2.2-3.5 4.4v1h2.4q1.1 0 2.9-2.6z"/><path d="m162 34v-2.1h-8.5v2.1zm0 5.4v-2.1h-8.5v2.1zm0 3.3h-8.5v2.1h8.5zm-17-22q4.6-4.2 7-9.7l3.7 1.9q-2.9 6.7-8.4 11zm31 2.9q-3.3-5.8-7.4-11l3.4-2.5q4.2 4.8 7.5 10zm-7.7 0.97 4.2 0.75q-0.66 1.1-1.5 3h3.6q1.1 0 2.9-2.6v9q-1.8-2.6-2.9-2.6h-7.8v2.1h6.7q1.1 0 2.9-2.6v8.6q-1.8-2.6-2.9-2.6h-6.7v2.1h6.7q1.1 0 2.9-2.6v8.6q-1.8-2.6-2.9-2.6h-6.7v2.1h8.2q1.1 0 2.9-2.6v9.2q-1.8-2.6-2.9-2.6h-21v4.7q-1.8-2.6-2.9-2.6h-4.8q3.5-2.2 3.5-4.4v-14q-1.5 0.57-4 1.1l-1.1-4.1q9.8-2.2 16-6.2 0.18 0.044-1.2 0.044-1.6 0-5.1-0.22l-0.18-4.2q3.9 0.22 4.7 0.22 1.1 0 1.2-0.26 0.13-0.31 0.13-2.1v-2.6q0-2.2-3.5-4.4h11q-3.5 2.2-3.5 4.4v2.6q0 3.7-0.18 4.8 2.5-2.1 5.2-4.7l2.7 3.1q-5 4.7-12 8.3h5.2q1-1.8 2.1-3.7z"/></g></svg>
