<svg width="280" height="60" version="1.1" viewBox="0 0 280 60" xmlns="http://www.w3.org/2000/svg"><g style="dominant-baseline:central;fill:#fff" aria-label="音楽"><path d="m20 41v3.8h16v-3.8zm0-3.7h16v-3.7h-16zm11-14q1.5-2.9 2.5-6.1h-11q1 2.6 2.2 6.1zm-19 6.4h32q-3.5 2.2-3.5 4.4v12q0 2.2 3.5 4.4h-5.1q-1.1 0-2.9 2.6v-4.4h-16v4.4q-1.8-2.6-2.9-2.6h-5.1q3.5-2.2 3.5-4.4v-12q0-2.2-3.5-4.4zm-0.79 0.088v-9.1q1.8 2.6 2.9 2.6h5.9q-1.2-3.4-2.4-6.1h-2.4q-1.1 0-2.9 2.6v-9.2q1.8 2.6 2.9 2.6h11v-1.3q0-1.3-3.5-2.9h11q-3.5 1.5-3.5 2.9v1.3h11q1.1 0 2.9-2.6v9.2q-1.8-2.6-2.9-2.6h-2.5q-0.88 3-2.3 6.1h5.8q1.1 0 2.9-2.6v9.1q-1.8-2.6-2.9-2.6h-27q-1.1 0-2.9 2.6z"/><path d="m159 24v3.7h8v-3.7zm0-3.7h8v-3.5h-8zm-6.6 1.2q-2.8-3.1-6.3-6.2l2.5-3.4q3.6 3.1 6.4 6.2zm-6.5 6.9q4.3-2.2 7.8-4.7l1.2 3.4v-9.8q0-2.2-3.5-4.4h8.7q0.31-1.6 0.79-3.7l4.3 0.31q-0.4 2.1-0.66 3.4h10q-3.5 2.2-3.5 4.4v9.5l1.1-3.1q4.6 2.2 7.9 4.7l-1.9 3.8q-3.5-2.6-7.1-4.6v1.1q0 1.3 3.5 2.9h-9.5v2.5h11q1.1 0 2.9-2.6v9.3q-1.8-2.6-2.9-2.6h-8.9q4.4 4.5 13 8l-1.5 4q-8.6-3.9-13-8.9v5.1q0 2.2 3.5 4.4h-11q3.5-2.2 3.5-4.4v-5.1q-4.7 5-13 8.9l-1.5-4q8.6-3.6 13-8h-8.9q-1.1 0-2.9 2.6v-9.3q1.8 2.6 2.9 2.6h11v-2.5h-9.5q3.5-1.5 3.5-2.9v-1.1q-2.6 2.4-7.3 4.7zm28-7-2.6-3.3q3.5-3.1 6.3-6.2l2.6 3.3q-2.7 3.2-6.4 6.2z"/></g></svg>
