<svg width="280" height="60" version="1.1" viewBox="0 0 280 60" xmlns="http://www.w3.org/2000/svg"><g style="dominant-baseline:central;fill:#fff" aria-label="ニュース"><path d="m41 26c-0.18 0-0.29 0.14-0.29 0.4 0.14 1.2 1.1 1.9 2 2.6 0.18 0.11 0.43 0.18 0.79 0.18 0.29 0 0.65-0.036 1-0.14 2.1-0.58 5.9-0.76 8.1-0.76h1.2c1.4 0 1.7-0.29 1.7-0.86 0-0.68-1.3-2.3-2.1-2.3-0.072 0-0.11 0-0.14 0.036-1.4 0.68-4.4 1.3-7.6 1.4-2 0-4.1-0.18-4.8-0.5zm-4.2 9.2c-0.22 0-0.43 0.14-0.43 0.4 0 0.11 0.036 0.22 0.11 0.36 0.65 1.1 1.5 1.8 2.4 2.4 0.22 0.11 0.43 0.18 0.68 0.18 0.36 0 0.76-0.11 1.1-0.22 3.6-1.1 8.1-1.9 12-1.9 2.1 0 5.2 0.4 6.4 0.58 0.68-0.036 1.5-1.3 1.5-2.3 0-0.58-0.22-1.3-2.1-1.3-6 0.43-15 2.1-20 2.1-0.83 0-1.5-0.072-2.2-0.22z"/><path d="m99 32c-0.29 0-0.68 0.14-0.68 0.43 0 0.11 0.072 0.25 0.25 0.43 0.47 0.4 1.1 1 1.9 1.1 0.97-0.14 2.5-1 3.6-1.3 0.43-0.14 0.43-0.11 0.4 0.29l-0.4 4.4c-2.3 0.18-4.6 0.32-6.4 0.4-0.58 0.036-0.86-0.11-1.3-0.11-0.32 0-0.54 0.11-0.54 0.32 0.29 0.9 1 1.8 2.3 2 0.29 0 0.58-0.11 0.9-0.25 2.5-0.79 5.5-0.83 8.2-0.83 1.3 0 2.9 0.14 3.7 0.18 0.58 0 0.76-0.29 0.76-0.68-0.14-0.79-0.47-1.7-1.5-1.6-1.4 0.14-3 0.29-4.5 0.43 0.25-1 0.68-2.8 0.9-3.5 0.22-0.43 1.3-0.72 1.3-1.5 0-0.18-0.11-0.4-0.32-0.58-0.65-0.4-1.3-1.4-1.9-1.4-0.5 0-0.83 0.54-1.3 0.68-2.2 0.58-2.9 0.83-4.8 1-0.14 0-0.22-0.036-0.32-0.036z"/><path d="m168 29c-3.4 0.18-14 0.79-17 0.86-0.97 0-2.4-0.036-3.1-0.61-0.32-0.22-0.61-0.32-0.79-0.32-0.25 0-0.36 0.22-0.36 0.47 0.29 1.4 0.97 1.9 2.4 2.9 0.36 0.18 0.68 0.25 1 0.25 0.5 0 0.97-0.11 1.4-0.18 3.9-0.68 8.2-0.65 11-0.79 1.7 0 4.4 0.14 5.2 0.14 1.2 0 1.7-0.4 1.7-0.94-0.072-0.61-0.68-2-1.9-1.8z"/><path d="m204 25c-0.47 0-0.65 0.14-0.65 0.36 0 0.18 0.11 0.4 0.36 0.65 0.83 0.54 2.1 1.7 3.6 1.6 0.61 0 1.1-0.14 1.4-0.32 1.3-0.68 4-1.1 5.6-1.2 0.36 0 0.65 0.11 0.65 0.47 0 0.072-0.036 0.18-0.072 0.29-1.6 4.4-5.3 8.6-11 11-0.76 0.4-1.2 0.76-1.2 1 0 0.14 0.18 0.29 0.5 0.29 0.29 0 0.68-0.072 1.2-0.25 7.7-2.5 11-6.6 14-12 0.36-0.68 1-1.1 1.6-1.5 0.61-0.4 0.9-0.72 0.9-1-0.22-1.1-2.6-1.9-3.6-2.1-0.76 0.11-1.3 0.86-2 1.1-2 0.5-6.2 1.2-9.3 1.1-0.65 0-1.2 0-1.7-0.036zm20 13c0-0.68-0.32-1.5-1-2.1-1.8-1.4-4.1-2.2-7.2-2.7-0.36 0-0.54 0.11-0.54 0.25 0 0.18 0.22 0.43 0.58 0.65 1.6 1.1 2.9 2.3 4 4.2 0.58 1 1.2 1.4 2.1 1.4 1.3 0.072 2.2-0.5 2.2-1.7z"/></g></svg>
