<svg width="280" height="60" version="1.1" viewBox="0 0 280 60" xmlns="http://www.w3.org/2000/svg"><g style="dominant-baseline:central;fill:#fff" aria-label="リアリティショー"><path d="m16 33c0 2 2.8 1.2 4.7 1.2 1.7 0 3.8 0.51 3.8-1.2 0-0.26-0.064-0.51-0.22-0.83-0.35-0.74-0.67-5.3-0.67-8.1 0-0.96 0.032-1.7 0.13-2 0.45-1.1 0.45-2.5-1.2-2.5-1.5 0-3.1 0.096-4.5 0.096-0.7 0-1.4-0.032-2-0.032-1.7 0-2.2 0.93-1.7 2.2 0.96 2.4 1.7 7.8 1.7 10 0 0.48-0.064 0.7-0.064 1.1zm18-13c-1.9 0-3.6-0.13-5-0.13-2.2 0-2.3 1.8-1.3 3 0.51 0.7 0.67 2 0.7 2.7 0.096 1.5 0.29 3.2 0.29 5 0 3.5-0.61 7.5-3.4 11-0.38 0.51-0.58 0.93-0.58 1.2 0 0.96 1.6 0.35 2.3 0.032 8.1-4 9.5-13 10-18 0.16-1.1 0.38-2 0.64-2.7 0.19-0.42 0.29-0.8 0.29-1.1 0-2-2.2-1.4-4.1-1.4z"/><path d="m46 29c0 1.3 0.54 2.4 1.9 2.4 0.86 0 1.1-0.74 2-0.9 2.2-0.45 5.4-0.61 8.2-0.61 1.7 0 3.2 0.064 4.2 0.16 0.54 0.064 0.74 0.35 0.74 0.86 0 0.32-0.54 2.7-1.2 4.3-0.16 0.38-0.22 0.67-0.22 0.93 0 0.54 0.32 0.8 0.7 0.8 0.26 0 0.58-0.13 0.83-0.32 0.93-0.7 4.8-4.2 7-9.7 0.29-0.77 0.83-1.8 1.1-2.6 0.13-0.35 0.19-0.7 0.19-1 0-1.4-1.1-2.4-2.6-2.4-0.32 0-0.64 0.064-0.99 0.16-0.9 0.26-5.3 0.38-9.9 0.38-4.4 0-9-0.13-11-0.38-0.29-0.032-0.58-0.064-0.83-0.064-1.6 0-2.3 0.93-2.3 1.9 0 0.54 0.19 1.1 0.54 1.5 0.7 0.9 1.2 3.4 1.2 4.6zm9.9 15c0.32 0 0.7-0.19 1.2-0.58 1.6-1.3 3.4-4.2 3.8-8.3 0.032-0.54 0.13-1 0.29-1.4 0.096-0.22 0.13-0.42 0.13-0.61 0-0.51-0.35-0.77-1.1-0.77-0.16 0-0.32 0-0.51 0.032-0.51 0.064-2.1 0.19-3.5 0.19-0.64 0-1.3 0-1.7-0.096-0.16-0.032-0.32-0.032-0.45-0.032-0.9 0-1.3 0.54-1.3 1.1 0 0.35 0.19 0.74 0.54 0.99 0 0 0.58 0.51 0.83 1.2 0.77 2 1.2 3.6 1.2 5.5 0 0.48-0.064 0.99-0.064 1.5 0 0.77 0.29 1.2 0.74 1.2z"/><path d="m81 33c0 2 2.8 1.2 4.7 1.2 1.7 0 3.8 0.51 3.8-1.2 0-0.26-0.064-0.51-0.22-0.83-0.35-0.74-0.67-5.3-0.67-8.1 0-0.96 0.032-1.7 0.13-2 0.45-1.1 0.45-2.5-1.2-2.5-1.5 0-3.1 0.096-4.5 0.096-0.7 0-1.4-0.032-2-0.032-1.7 0-2.2 0.93-1.7 2.2 0.96 2.4 1.7 7.8 1.7 10 0 0.48-0.064 0.7-0.064 1.1zm18-13c-1.9 0-3.6-0.13-5-0.13-2.2 0-2.3 1.8-1.3 3 0.51 0.7 0.67 2 0.7 2.7 0.096 1.5 0.29 3.2 0.29 5 0 3.5-0.61 7.5-3.4 11-0.38 0.51-0.58 0.93-0.58 1.2 0 0.96 1.6 0.35 2.3 0.032 8.1-4 9.5-13 10-18 0.16-1.1 0.38-2 0.64-2.7 0.19-0.42 0.29-0.8 0.29-1.1 0-2-2.2-1.4-4.1-1.4z"/><path d="m120 42c-0.58 0.58-0.8 1.1-0.8 1.4 0 0.86 1.5 0.58 2.3 0.35 5.3-1.7 7.1-6 7.7-9.3 1.3 0.064 2.6 0.19 3.5 0.38 0.42 0.096 0.8 0.13 1.1 0.13 1.4 0 1.6-0.96 1.8-2.2 0.22-1.3 0.67-2.7 1.1-3.9 0.7-1.9-0.29-3.1-2.2-2.8-4.9 0.8-17 0.7-22 0.26-2.1-0.16-2.4 1.5-1.7 3.4 0.29 0.8 0.67 1.9 0.8 3.6 0.19 2.3 2.3 2.1 4 1.9 1.6-0.26 3.8-0.48 6.1-0.61v0.83c0 2.4-0.38 5.2-2 6.7zm11-25c-2.3 0-4.8 0.096-9.4 0.096-2.4 0-4-0.064-5.4-0.064-1.5 0-2.7 0.51-2.4 2.2 0.29 1.6 0.51 2.5 0.58 3.4 0.064 1.4 1.2 2 3.1 1.8 3.7-0.45 9.4-0.48 13 0 1.8 0.26 2.5-0.48 2.5-2.2 0-1.5 0.54-2.7 0.54-3.9 0-1.2-0.93-1.3-2-1.3z"/><path d="m147 37h0.22c2.2-0.096 4.5-0.64 6.5-1.5 0.54 1.3 0.8 3.7 0.8 5.2 0 0.54-0.096 0.86-0.096 1.3 0 0.74 0.54 1.2 1.3 1.2 0.61 0 1.2-0.096 1.8-0.096 0.7 0 1.3 0.032 1.8 0.064 0.13 0.032 0.26 0.032 0.32 0.032 0.67 0 1.2-0.51 1.2-1.3 0-0.54-0.096-1-0.096-1.6 0-1.9 0.45-4 0.7-5 0.032-0.19 0.064-0.45 0.064-0.61 0-0.67-0.38-1.2-1.2-1.2h-0.26c-0.93 0.13-1.9 0.19-2.2 0.19 2.2-1.3 4.7-3.4 6.3-5.6 0.51-0.67 1.3-1.1 1.6-1.7 0.29-0.45 0.42-0.83 0.42-1.2 0-0.96-1.1-1.5-2.5-1.5-0.61 0-0.99 0.064-1.7 0.064-1.2 0-2.8-0.13-4.4-0.45-0.22-0.032-0.45-0.064-0.64-0.064-1.2 0-1.7 0.93-1.7 1.7v0.26c0 0.64-0.35 1.5-0.67 2-0.99 1.8-5.5 6-8.1 7.6-0.8 0.45-1.2 0.99-1.2 1.4 0 0.54 0.7 0.9 1.7 0.9z"/><path d="m198 23c-1.5 7.7-7.5 13-16 14-0.86 0.096-1.3 0.77-1.3 1.5 0 0.48 0.22 0.96 0.67 1.3 1.6 1 3.2 2.1 4.7 3.6 0.45 0.48 0.9 0.74 1.4 0.74 0.51 0 1.1-0.35 1.6-1.1 0.8-1.1 11-5.5 11-18 0-1.2-0.032-3.7-1.2-3.7-0.48 0-0.99 0.64-1.3 2zm-21 3.2c0.064 1.5 1.3 2 2.4 1.8 1.8-0.29 6.9-0.26 8.6-0.064 1.1 0.13 1.5-0.51 1.7-1.9 0.13-1.2 0.35-2.5 0.64-3.6 0.45-1.5-0.64-2.8-2.1-2.6-2 0.26-7.1 0.74-10 0.32-1.6-0.26-2.2 1.1-1.8 2.6 0.19 0.7 0.51 1.9 0.58 3.5zm2.6 8.6c1.6-0.19 5.8-0.38 7.8-0.16 1 0.16 1.2-0.19 1.3-1.2 0.16-0.8 0.22-1.6 0.42-2.3 0.29-1.3-0.064-2.2-1.4-2-2.5 0.35-6.7 0.26-9.2 0.032-1.2-0.096-1.5 0.77-1.2 1.8 0.13 0.51 0.29 1.8 0.42 2.6 0.22 1.3 0.86 1.3 1.9 1.2z"/><path d="m212 27c0.32 0.38 0.93 2 0.93 3.2 0 1-0.032 1.8 1.2 1.8 0.16 0 0.42-0.032 0.64-0.064 1.9-0.26 5.3-0.096 6.9-0.096 0.29 0 0.29 0.032 0.32 0.38 0.032 0.13 0.064 0.58 0.13 0.93-2.8 0.064-6.1-0.032-7-0.19-0.9-0.13-1.8 0.064-1.8 0.93 0 0.9 0.83 1.5 0.83 2.3 0 0.9 0.7 1.5 1.7 1.3 0.51-0.16 3.8-0.29 6.7-0.32 0.064 0.51 0.096 0.93 0.096 1.1 0 0.22-0.096 0.32-0.35 0.35-0.54 0.064-5.6 0.13-6-0.064-0.38-0.19-0.77-0.26-1.1-0.26-1.8 0-0.54 2.1-0.42 2.8 0.096 0.67 0.29 1.1 1.3 1.1 0.93 0 4.6-0.26 8.2-0.26 0.96 0 1.9 0.032 2.8 0.032 1.9 0 1.5-1.5 1.5-2.7 0-1.8 0.93-7.9 1.3-13 0.13-1.6-1-2-2.6-1.9-1.8 0.26-11 0.35-13-0.032-1.9-0.29-2.9 1.1-1.9 2.5z"/><path d="m244 34c0 1.5 1.1 2.1 2.4 2 4.5-0.64 11-0.29 14 0.19 1.2 0.16 2.4-0.42 2.4-1.8 0-0.64-0.16-1.1-0.16-1.9 0-2.3 1.5-6-1.7-5.7-3.5 0.32-13 0.16-15-0.19-0.35-0.064-0.64-0.096-0.9-0.096-2 0-2 1.5-1.6 3 0.16 0.54 0.29 1.6 0.29 2.7 0 0.58-0.096 1.2-0.096 1.8z"/></g></svg>
