<svg width="280" height="60" version="1.1" viewBox="0 0 280 60" xmlns="http://www.w3.org/2000/svg"><g style="dominant-baseline:central;fill:#fff" aria-label="将棋"><path d="m40 28h4.9q-3.5 1.5-3.5 2.9v0.044h0.4q1.1 0 2.9-2.6v9.3q-1.8-2.6-2.9-2.6h-0.4v8.1q0 2-0.13 3.1-0.088 1.1-0.35 1.9t-1.1 1.1q-0.75 0.35-1.7 0.48-0.88 0.13-2.6 0.13-1.5 0-4.2-0.18l-0.18-4q2.4 0.18 3.7 0.18 1.6 0 1.8-0.35 0.22-0.35 0.22-2.2v-8.2h-13q-1.1 0-2.9 2.6v-9.3q1.8 2.6 2.9 2.6h13v-0.044q0-1.3-3.5-2.9h4.8l-2.4-1.4q2.3-4.6 4.3-12l3.7 1.3q-2 7.4-4 12zm-18-16q13-0.26 21-2.2l0.7 3.9q-8.8 2.1-22 2.4zm6.3 15-3.6 1.3q-1.5-5.5-3.3-9.9l3.6-1.4q1.8 4.4 3.3 9.9zm3.6 0.26q-1.5-5.8-3.1-10l3.6-1.3q1.8 4.4 3.3 10zm-7.8 11 2.8-3.1q3.1 3.2 6.1 7.3l-2.8 3q-3-4.1-6.1-7.3zm-14-21 3.5-2q1.8 4.3 2.5 7.7v-9q0-2.2-3.5-4.4h11q-3.5 2.2-3.5 4.4v32q0 2.2 3.5 4.4h-11q3.5-2.2 3.5-4.4v-8.2q-1.7 1.5-5 3.3l-1.4-4.2q3.8-2.2 6.4-4v-6.2l-2.1 1.3q-1.6-4.9-4-11z"/><path d="m158 37v-19h-1.1v0.88q0 1.3 3.5 2.9h-6.5q2.2 6.7 3.8 11l-2.9 2.6q-0.18-0.35-0.44-1.1-0.22-0.79-0.62-2t-0.22-2.1v16q0 2.2 3.5 4.4h-11q3.5-2.2 3.5-4.4v-12q-0.79 4.7-2.5 7.8l-2.5-4.4q3.6-7.6 4.8-16h-1.1q-1.1 0-2.9 2.6v-9.3q1.8 2.6 2.9 2.6h1.3v-3q0-2.2-3.5-4.4h11q-3.5 2.2-3.5 4.4v3h2v-0.88q0-1.3-3.5-2.9h6v-0.83q0-1.3-3.5-2.9h11q-3.5 1.5-3.5 2.9v0.83h10v-0.83q0-1.3-3.5-2.9h11q-3.5 1.5-3.5 2.9v0.83h0.57q0.44 0 2-1.5v7.1q-1.5-1.5-2-1.5h-0.57v19h0.044q1.1 0 2.9-2.6v9.2q-1.8-2.6-2.9-2.6h-5.4q4.5 2.9 8.2 6.4l-2 3.8q-4-3.7-9.8-6.8l1.5-3.4h-4.4l1.6 3q-1.8 1.9-4.5 3.8-2.7 1.9-5.7 3.1l-1.7-3.9q5.4-2.5 8.5-5.9l-7.7-0.044v-1.1q0-1.3-3.5-2.9zm4.2-4v4h10v-4zm0-7.5v3.9h10v-3.9zm0-3.6h10v-3.9h-10z"/></g></svg>
