<svg width="280" height="60" version="1.1" viewBox="0 0 280 60" xmlns="http://www.w3.org/2000/svg"><g style="dominant-baseline:central;fill:#fff" aria-label="大相撲"><path d="m31 26v-9.6q1.8 2.6 2.9 2.6h11v-4.6q0-2.2-3.5-4.4h11q-3.5 2.2-3.5 4.4v4.6h11q1.1 0 2.9-2.6v9.6q-1.8-2.6-2.9-2.6h-11q0.7 7.6 4.3 13 3.6 5.8 9.8 9.5l-2.3 3.7q-4.9-2.7-8.6-7.6-3.6-4.9-5.4-11-1.7 6.1-5.4 11t-8.8 7.6l-2.3-3.7q6.2-3.7 9.8-9.5 3.6-5.8 4.3-13h-11q-1.1 0-2.9 2.6z"/><path d="m125 33h9.7v-6.9h-9.7zm0 11h9.7v-6.9h-9.7zm9.7-22v-6.9h-9.7v6.9zm-28-7q1.8 2.6 2.9 2.6h2.3v-3.5q0-2.2-3.5-4.4h11q-3.5 2.2-3.5 4.4v3.5h1q1.1 0 2.9-2.6v9.4q-1.8-2.6-2.9-2.6h-0.22q2.1 4.7 3.7 9.7v-16q0-2.2-3.5-4.4h25q-3.5 2.2-3.5 4.4v30q0 2.2 3.5 4.4h-4.8q-1.1 0-2.9 2.6v-4.9h-9.7v4.9q-1.8-2.6-2.9-2.6h-4.7q3.5-2.2 3.5-4.4v-11l-1.7 1.8q-1.8-4.2-2.8-7.7v17q0 2.2 3.5 4.4h-11q3.5-2.2 3.5-4.4v-15q-1.3 6.4-4.4 11l-2.2-4.3q4.4-8 6-16h-1.6q-1.1 0-2.9 2.6z"/><path d="m208 24q0.83-2.4 1.5-5.2h-6.8q0.4 1.7 1.2 5.2zm-14 18v-9q1.8 2.6 2.9 2.6h7.2v-2.5h-5.9q-1.1 0-2.9 2.6v-8.8q1.8 2.6 2.9 2.6h5.9v-2.5h-6.8q-1.1 0-2.9 2.6v-8.9q1.8 2.6 2.9 2.6h2.8q-0.62-2.8-1.3-5.2h-3.6v4q-1.5-1.5-2-1.5h-0.88v8.2q0.044-0.13 2.6-1.2v4.1q-0.66 0.31-2.6 1.4v9.2q0 4.4-0.66 5.4-0.66 1.1-3.4 1.1-0.62 0-3.2-0.22l-0.13-3.9q2.5 0.22 2.8 0.22 0.31 0 0.35-0.31 0.088-0.31 0.088-2.1v-7.8q-1.2 0.57-3.2 1.1l-0.26-4.3q1.6-0.4 3.5-1.2v-9.7h-0.62q-1.1 0-2.9 2.6v-9.3q1.8 2.6 2.9 2.6h0.62v-3.6q0-2.2-3.5-4.4h11q-3.5 2.2-3.5 4.4v3.6h1.9v-3.8q1.5 1.5 2 1.5h0.48q-0.79-2.4-1.5-4.1l3.5-1.5q0.92 2 2.1 5.5h0.83v-1.8q0-2.2-3.5-4.4h11q-3.5 2.2-3.5 4.4v1.8h2v-1.8q0-2.2-3.5-4.4h11q-3.5 2.2-3.5 4.4v1.8h0.88q0.97-2.8 1.9-5.5l3.6 1.1q-0.83 2.7-1.5 4.4h0.22q0.44 0 2-1.5v8q-1.8-2.6-2.9-2.6h-1.4q-0.62 2.8-1.3 5.2h2.5q1.1 0 2.9-2.6v8.9q-1.8-2.6-2.9-2.6h-6.8v2.5h5.9q1.1 0 2.9-2.6v8.8q-1.8-2.6-2.9-2.6h-5.9v2.5h7.3q1.1 0 2.9-2.6v9q-1.8-2.6-2.9-2.6h-6q2.2 4.4 9.4 5.9l-0.92 4.3q-4.1-0.92-7.2-3.2-3-2.2-4.5-5.1-1.6 2.9-4.8 5.1-3.2 2.3-7.5 3.2l-1-4.3q7.5-1.6 9.8-5.9h-5.9q-1.1 0-2.9 2.6z"/></g></svg>
