<svg width="280" height="60" version="1.1" viewBox="0 0 280 60" xmlns="http://www.w3.org/2000/svg"><g style="dominant-baseline:central;fill:#fff" aria-label="バラエティ"><path d="m15 42c7.4-3.2 11-12 12-15 0.13-0.74 0.29-1.7 0.54-2.1 0.54-1.1 0-2.3-1.2-2.3-2.4 0-6.1 0.16-8.2-0.26-0.22-0.032-0.42-0.064-0.58-0.064-1.7 0-1.5 1.7-0.86 2.7 0.29 0.45 0.48 1.8 0.48 2.4 0.064 3.4-0.93 10-3.5 13-0.42 0.48-0.61 0.86-0.61 1.1 0 0.86 1.5 0.38 2.1 0.13zm21-15c-0.7 1-2 0.7-3 0.8-0.35 0.032-0.7-0.032-0.96-0.13-0.99 0.38-2 0.77-2.8 0.93-2.1 0.38-1.8 1.6-0.42 2.6 3.8 2.8 6.9 6.7 8.9 9.5 0.93 1.3 2.4 1.6 2.4-0.61 0-3.6-1.1-9.6-2.6-12-0.58-0.064-1.1-0.26-1.5-0.74zm-4.1-1.2c0 0.83 0.38 1.1 1 0.99 0.48-0.032 1.1 0.032 1.6-0.032 0.64-0.064 0.93-0.38 0.86-1.4-0.096-1.4-0.16-2.5-0.13-3.7 0.032-0.7-0.22-1.2-0.7-1.2-0.54 0-1.7-0.032-2.1-0.032-0.86 0-1.1 0.38-0.93 1.6 0.096 0.8 0.38 2.9 0.42 3.8zm4.6-0.29c0 0.83 0.45 1.2 1.1 1.2 0.48 0 0.8-0.064 1.5 0 0.61 0.032 0.96-0.26 0.96-1.3-0.032-1.1-0.032-2.5 0.096-3.7 0.064-0.67 0.032-1.2-0.64-1.2-0.93 0.032-1.5 0.032-2.3-0.032-0.9-0.064-1.1 0.29-0.93 1.4 0.13 0.96 0.22 2.7 0.19 3.7z"/><path d="m77 43c0 0.77 1.4 0.35 2 0.096 4.3-1.6 7.9-5.3 9.9-11 0.26-0.7 0.54-1.6 0.8-2.2 0.58-1.7-0.13-2.6-2.3-2.3-2.3 0.29-15 0.42-18 0-0.35-0.032-0.64-0.064-0.93-0.064-2.2 0-2.5 1.4-1.7 2.8 0.54 0.96 0.7 2 0.7 3 0 2.3 2.9 1.4 4.9 1.3 1.5-0.096 3.3-0.19 5-0.19 0.9 0 2.6-0.19 2.6 0.64 0 1.4-1.2 5.3-2.5 6.6-0.42 0.42-0.64 0.83-0.64 1.1zm-7.6-19c0.13 2.6 2.3 1.9 5 1.9 3.5 0 9 0.13 10 0.13 1.4 0 2-0.74 2.2-1.8 0.13-1 0.51-2.9 0.77-3.6 0.64-1.5 0.032-2.6-1.8-2.6-1.6 0-4.6 0.26-8.2 0.26-2.4 0-4.9-0.096-6.8-0.29-4.2-0.48-1.8 3.5-1.7 6z"/><path d="m119 40c0.22 1.2 1.1 1.5 2.3 1.5 0.35 0 0.74-0.032 1.1-0.064 3.6-0.26 7.8-0.48 12-0.48 1.8 0 3.5 0.064 5.1 0.16 0.32 0.032 0.58 0.032 0.83 0.032 1.6 0 1.8-0.38 2-1.3 0.13-0.86 0.32-1.8 0.67-2.6 0.19-0.51 0.32-0.96 0.32-1.3 0-0.8-0.48-1.3-1.7-1.3-0.29 0-0.61 0.032-0.99 0.096-1.8 0.26-3.8 0.42-6 0.51l0.45-4.5h0.38c1.9 0 3 0.096 4 0.096 1.6 0 2.3-0.83 2.4-2.3 0.064-1.6 0.26-2.7 0.83-4.2 0.096-0.29 0.16-0.58 0.16-0.83 0-1.3-1.3-2.1-3.2-2.1h-0.35c-3.7 0.13-8.3 0.54-13 0.54-1.6 0-3.1-0.064-4.5-0.19-0.19-0.032-0.38-0.032-0.58-0.032-1.6 0-2.8 0.7-2.8 1.9 0 0.32 0.096 0.7 0.26 1.1 0.35 0.77 0.86 2.1 0.99 3.9 0.096 1.6 1.2 2.5 2.8 2.5 0.16 0 0.32 0 0.51-0.032 0.96-0.096 2.3-0.19 3.9-0.26l0.58 4.5c-2.5-0.032-4.9-0.096-6.8-0.19h-0.45c-1.5 0-2.3 0.35-2.3 1.2 0 0.29 0.096 0.67 0.29 1.1 0.26 0.58 0.58 1.7 0.74 2.5z"/><path d="m178 42c-0.58 0.58-0.8 1.1-0.8 1.4 0 0.86 1.5 0.58 2.3 0.35 5.3-1.7 7.1-6 7.7-9.3 1.3 0.064 2.6 0.19 3.5 0.38 0.42 0.096 0.8 0.13 1.1 0.13 1.4 0 1.6-0.96 1.8-2.2 0.22-1.3 0.67-2.7 1.1-3.9 0.7-1.9-0.29-3.1-2.2-2.8-4.9 0.8-17 0.7-22 0.26-2.1-0.16-2.4 1.5-1.7 3.4 0.29 0.8 0.67 1.9 0.8 3.6 0.19 2.3 2.3 2.1 4 1.9 1.6-0.26 3.8-0.48 6.1-0.61v0.83c0 2.4-0.38 5.2-2 6.7zm11-25c-2.3 0-4.8 0.096-9.4 0.096-2.4 0-4-0.064-5.4-0.064-1.5 0-2.7 0.51-2.4 2.2 0.29 1.6 0.51 2.5 0.58 3.4 0.064 1.4 1.2 2 3.1 1.8 3.7-0.45 9.4-0.48 13 0 1.8 0.26 2.5-0.48 2.5-2.2 0-1.5 0.54-2.7 0.54-3.9 0-1.2-0.93-1.3-2-1.3z"/><path d="m225 37h0.22c2.2-0.096 4.5-0.64 6.5-1.5 0.54 1.3 0.8 3.7 0.8 5.2 0 0.54-0.096 0.86-0.096 1.3 0 0.74 0.54 1.2 1.3 1.2 0.61 0 1.2-0.096 1.8-0.096 0.7 0 1.3 0.032 1.8 0.064 0.13 0.032 0.26 0.032 0.32 0.032 0.67 0 1.2-0.51 1.2-1.3 0-0.54-0.096-1-0.096-1.6 0-1.9 0.45-4 0.7-5 0.032-0.19 0.064-0.45 0.064-0.61 0-0.67-0.38-1.2-1.2-1.2h-0.26c-0.93 0.13-1.9 0.19-2.2 0.19 2.2-1.3 4.7-3.4 6.3-5.6 0.51-0.67 1.3-1.1 1.6-1.7 0.29-0.45 0.42-0.83 0.42-1.2 0-0.96-1.1-1.5-2.5-1.5-0.61 0-0.99 0.064-1.7 0.064-1.2 0-2.8-0.13-4.4-0.45-0.22-0.032-0.45-0.064-0.64-0.064-1.2 0-1.7 0.93-1.7 1.7v0.26c0 0.64-0.35 1.5-0.67 2-0.99 1.8-5.5 6-8.1 7.6-0.8 0.45-1.2 0.99-1.2 1.4 0 0.54 0.7 0.9 1.7 0.9z"/></g></svg>
